<svg xmlns="http://www.w3.org/2000/svg" width="130" height="67" viewBox="0 0 130 67">
    <g fill="none" fill-rule="nonzero">
        <path fill="#F33400" d="M71.093 20.313a3.047 3.047 0 0 1 0-6.095h25.39a3.048 3.048 0 0 1 0 6.095h-25.39zM32.5 20.312H3.047a3.047 3.047 0 0 1 0-6.094H32.5v6.094zm0 15.236H8.126a3.047 3.047 0 0 1 0-6.094H32.5v6.094zm0 15.235H13.204a3.047 3.047 0 0 1 0-6.094H32.5v6.094z"/>
        <path fill="#3B4652" d="M123.906 6.094H43.672v1.428c0 2.05 1.351 3 3.447 4.475l36.67 26.227 36.669-26.227c2.096-1.474 3.448-2.425 3.448-4.475V6.094zM43.127 0h81.324C127.426 0 130 2.358 130 5.382v55.252c0 3.025-2.573 5.382-5.55 5.382H43.128c-2.976 0-5.549-2.358-5.549-5.382V5.382C37.578 2.358 40.151 0 43.127 0zm.545 17.008v38.529l24.345-21.125-23.51-16.816-.835-.588zm4.217 42.913h71.8L94.48 38.047l-8.93 6.388a3.041 3.041 0 0 1-3.58-.04l-8.872-6.348-25.209 21.874zm76.017-4.384v-38.53L99.56 34.413l24.345 21.125z"/>
    </g>
</svg>
