<?xml version="1.0" encoding="UTF-8"?>
<svg width="249px" height="247px" viewBox="0 0 249 247" version="1.1" xmlns="http://www.w3.org/2000/svg" xmlns:xlink="http://www.w3.org/1999/xlink">
    <!-- Generator: sketchtool 49.1 (51147) - http://www.bohemiancoding.com/sketch -->
    <title>AF74B28C-9D3E-4BF2-8F86-420F092F00B6</title>
    <desc>Created with sketchtool.</desc>
    <defs></defs>
    <g id="all-pages" stroke="none" stroke-width="1" fill="none" fill-rule="evenodd">
        <g id="error-41" transform="translate(-841.000000, -290.000000)" fill-rule="nonzero">
            <g id="if_212_2661035" transform="translate(841.000000, 289.000000)">
                <g id="XMLID_204_" fill="#7DCEDC">
                    <circle id="Oval" cx="124.423077" cy="124.423077" r="123.076923"></circle>
                </g>
                <g id="Group" transform="translate(0.000000, 44.230769)">
                    <path d="M219.038462,0.192307692 L30,0.192307692 C24.8076923,0.192307692 20.5769231,4.42307692 20.5769231,9.61538462 L20.5769231,155.961538 L228.653846,155.961538 L228.653846,9.61538462 C228.461538,4.42307692 224.230769,0.192307692 219.038462,0.192307692 Z" id="Shape" fill="#25313B"></path>
                    <path d="M22.3076923,158.846154 L22.3076923,9.61538462 C22.3076923,5.38461538 25.7692308,2.11538462 29.8076923,2.11538462 L218.846154,2.11538462 C223.076923,2.11538462 226.346154,5.57692308 226.346154,9.61538462 L226.346154,158.846154 L22.3076923,158.846154 Z" id="Shape" fill="#474F59"></path>
                    <polygon id="Shape" fill="#FFFFFF" points="30 146.153846 30 9.61538462 219.038462 9.80769231 218.846154 146.153846"></polygon>
                    <path d="M0.384615385,155.961538 C0.384615385,165.576923 8.07692308,173.269231 17.6923077,173.269231 L231.153846,173.269231 C240.769231,173.269231 248.461538,165.576923 248.461538,155.961538 L0.384615385,155.961538 Z" id="Shape" fill="#F3F3F3"></path>
                    <polygon id="Shape" fill="#DAD9D8" points="153.076923 161.730769 95.9615385 161.730769 90.1923077 155.961538 158.653846 155.961538"></polygon>
                </g>
                <path d="M146.923077,168.461538 L146.923077,161.730769 L140.961538,160.961538 C140.769231,160.384615 140.769231,159.807692 140.576923,159.230769 L145.384615,155.576923 L141.923077,149.615385 L136.346154,151.923077 C135.961538,151.538462 135.576923,150.961538 135,150.576923 L137.307692,145 L131.346154,141.538462 L127.692308,146.346154 C127.115385,146.153846 126.538462,145.961538 125.961538,145.961538 L125.192308,140 L118.461538,140 L117.692308,145.961538 C117.115385,146.153846 116.538462,146.153846 115.961538,146.346154 L112.307692,141.538462 L106.346154,145 L108.653846,150.576923 C108.269231,150.961538 107.692308,151.346154 107.307692,151.923077 L101.730769,149.615385 L98.2692308,155.576923 L103.076923,159.230769 C102.884615,159.807692 102.692308,160.384615 102.692308,160.961538 L96.7307692,161.730769 L96.7307692,168.461538 L102.692308,169.230769 C102.884615,169.807692 102.884615,170.384615 103.076923,170.961538 L98.2692308,174.615385 L101.730769,180.576923 L107.307692,178.269231 C107.692308,178.653846 108.076923,179.230769 108.653846,179.615385 L106.346154,185.192308 L112.307692,188.653846 L115.961538,183.846154 C116.538462,184.038462 117.115385,184.230769 117.692308,184.230769 L118.461538,190.192308 L125.192308,190.192308 L125.961538,184.230769 C126.538462,184.038462 127.115385,184.038462 127.692308,183.846154 L131.346154,188.653846 L137.307692,185.192308 L135,179.615385 C135.384615,179.230769 135.961538,178.846154 136.346154,178.269231 L141.923077,180.576923 L145.384615,174.615385 L140.576923,170.961538 C140.769231,170.384615 140.961538,169.807692 140.961538,169.230769 L146.923077,168.461538 Z M121.730769,177.307692 C115,177.307692 109.615385,171.923077 109.615385,165.192308 C109.615385,158.461538 115,153.076923 121.730769,153.076923 C128.461538,153.076923 133.846154,158.461538 133.846154,165.192308 C133.846154,171.730769 128.461538,177.307692 121.730769,177.307692 Z" id="Shape" fill="#FDDA7F"></path>
                <rect id="Rectangle-path" fill="#F3F3F3" x="6.73076923" y="12.5" width="115" height="157.115385"></rect>
                <rect id="Rectangle-path" fill="#474F59" x="6.73076923" y="12.5" width="115" height="10.1923077"></rect>
                <circle id="Oval" fill="#FFFFFF" cx="15.1923077" cy="17.5" r="3.07692308"></circle>
                <circle id="Oval" fill="#FFFFFF" cx="25.1923077" cy="17.5" r="3.07692308"></circle>
                <circle id="Oval" fill="#FFFFFF" cx="35.1923077" cy="17.5" r="3.07692308"></circle>
                <g id="Group" transform="translate(15.384615, 30.769231)">
                    <path d="M10,1.53846154 L1.34615385,1.53846154 C1.15384615,1.53846154 0.769230769,1.34615385 0.769230769,0.961538462 C0.769230769,0.769230769 0.961538462,0.384615385 1.34615385,0.384615385 L10,0.384615385 C10.1923077,0.384615385 10.5769231,0.576923077 10.5769231,0.961538462 C10.5769231,1.34615385 10.3846154,1.53846154 10,1.53846154 Z" id="Shape" fill="#474F59"></path>
                    <path d="M32.6923077,7.69230769 L7.11538462,7.69230769 C6.92307692,7.69230769 6.53846154,7.5 6.53846154,7.11538462 C6.53846154,6.92307692 6.73076923,6.53846154 7.11538462,6.53846154 L32.6923077,6.53846154 C32.8846154,6.53846154 33.2692308,6.73076923 33.2692308,7.11538462 C33.2692308,7.5 33.0769231,7.69230769 32.6923077,7.69230769 Z" id="Shape" fill="#F37C5A"></path>
                    <path d="M68.0769231,7.69230769 L35.9615385,7.69230769 C35.7692308,7.69230769 35.3846154,7.5 35.3846154,7.11538462 C35.3846154,6.92307692 35.5769231,6.53846154 35.9615385,6.53846154 L68.2692308,6.53846154 C68.4615385,6.53846154 68.8461538,6.73076923 68.8461538,7.11538462 C68.6538462,7.5 68.4615385,7.69230769 68.0769231,7.69230769 Z" id="Shape" fill="#474F59"></path>
                    <path d="M15.7692308,13.8461538 L7.11538462,13.8461538 C6.92307692,13.8461538 6.53846154,13.6538462 6.53846154,13.2692308 C6.53846154,13.0769231 6.73076923,12.6923077 7.11538462,12.6923077 L15.7692308,12.6923077 C15.9615385,12.6923077 16.3461538,12.8846154 16.3461538,13.2692308 C16.3461538,13.6538462 15.9615385,13.8461538 15.7692308,13.8461538 Z" id="Shape" fill="#F37C5A"></path>
                    <path d="M26.5384615,13.8461538 L17.8846154,13.8461538 C17.6923077,13.8461538 17.3076923,13.6538462 17.3076923,13.2692308 C17.3076923,13.0769231 17.5,12.6923077 17.8846154,12.6923077 L26.5384615,12.6923077 C26.7307692,12.6923077 27.1153846,12.8846154 27.1153846,13.2692308 C26.9230769,13.6538462 26.7307692,13.8461538 26.5384615,13.8461538 Z" id="Shape" fill="#474F59"></path>
                    <path d="M37.1153846,13.8461538 L28.4615385,13.8461538 C28.2692308,13.8461538 27.8846154,13.6538462 27.8846154,13.2692308 C27.8846154,13.0769231 28.0769231,12.6923077 28.4615385,12.6923077 L37.1153846,12.6923077 C37.3076923,12.6923077 37.6923077,12.8846154 37.6923077,13.2692308 C37.6923077,13.6538462 37.5,13.8461538 37.1153846,13.8461538 Z" id="Shape" fill="#F37C5A"></path>
                    <path d="M47.8846154,13.8461538 L39.2307692,13.8461538 C39.0384615,13.8461538 38.6538462,13.6538462 38.6538462,13.2692308 C38.6538462,13.0769231 38.8461538,12.6923077 39.2307692,12.6923077 L47.8846154,12.6923077 C48.0769231,12.6923077 48.4615385,12.8846154 48.4615385,13.2692308 C48.4615385,13.6538462 48.2692308,13.8461538 47.8846154,13.8461538 Z" id="Shape" fill="#474F59"></path>
                    <path d="M73.8461538,13.8461538 L50,13.8461538 C49.8076923,13.8461538 49.4230769,13.6538462 49.4230769,13.2692308 C49.4230769,13.0769231 49.6153846,12.6923077 50,12.6923077 L73.8461538,12.6923077 C74.0384615,12.6923077 74.4230769,12.8846154 74.4230769,13.2692308 C74.2307692,13.6538462 74.0384615,13.8461538 73.8461538,13.8461538 Z" id="Shape" fill="#F37C5A"></path>
                    <path d="M24.4230769,20 L7.11538462,20 C6.92307692,20 6.53846154,19.8076923 6.53846154,19.4230769 C6.53846154,19.2307692 6.73076923,18.8461538 7.11538462,18.8461538 L24.4230769,18.8461538 C24.6153846,18.8461538 25,19.0384615 25,19.4230769 C25,19.8076923 24.8076923,20 24.4230769,20 Z" id="Shape" fill="#474F59"></path>
                    <path d="M43.8461538,20 L26.5384615,20 C26.3461538,20 25.9615385,19.8076923 25.9615385,19.4230769 C25.9615385,19.2307692 26.1538462,18.8461538 26.5384615,18.8461538 L43.8461538,18.8461538 C44.0384615,18.8461538 44.4230769,19.0384615 44.4230769,19.4230769 C44.4230769,19.8076923 44.2307692,20 43.8461538,20 Z" id="Shape" fill="#F37C5A"></path>
                    <path d="M63.2692308,20 L45.9615385,20 C45.7692308,20 45.3846154,19.8076923 45.3846154,19.4230769 C45.3846154,19.2307692 45.5769231,18.8461538 45.9615385,18.8461538 L63.2692308,18.8461538 C63.4615385,18.8461538 63.8461538,19.0384615 63.8461538,19.4230769 C63.8461538,19.8076923 63.4615385,20 63.2692308,20 Z" id="Shape" fill="#474F59"></path>
                    <path d="M82.6923077,20 L65.3846154,20 C65.1923077,20 64.8076923,19.8076923 64.8076923,19.4230769 C64.8076923,19.2307692 65,18.8461538 65.3846154,18.8461538 L82.6923077,18.8461538 C82.8846154,18.8461538 83.2692308,19.0384615 83.2692308,19.4230769 C83.0769231,19.8076923 82.8846154,20 82.6923077,20 Z" id="Shape" fill="#F37C5A"></path>
                    <path d="M38.8461538,26.3461538 L7.11538462,26.3461538 C6.92307692,26.3461538 6.53846154,26.1538462 6.53846154,25.7692308 C6.53846154,25.5769231 6.73076923,25.1923077 7.11538462,25.1923077 L39.0384615,25.1923077 C39.2307692,25.1923077 39.6153846,25.3846154 39.6153846,25.7692308 C39.4230769,25.9615385 39.2307692,26.3461538 38.8461538,26.3461538 Z" id="Shape" fill="#F37C5A"></path>
                    <path d="M74.0384615,26.3461538 L42.1153846,26.3461538 C41.9230769,26.3461538 41.5384615,26.1538462 41.5384615,25.7692308 C41.5384615,25.5769231 41.7307692,25.1923077 42.1153846,25.1923077 L74.0384615,25.1923077 C74.2307692,25.1923077 74.6153846,25.3846154 74.6153846,25.7692308 C74.4230769,25.9615385 74.2307692,26.3461538 74.0384615,26.3461538 Z" id="Shape" fill="#474F59"></path>
                    <path d="M26.5384615,32.5 L7.11538462,32.5 C6.92307692,32.5 6.53846154,32.3076923 6.53846154,31.9230769 C6.53846154,31.7307692 6.73076923,31.3461538 7.11538462,31.3461538 L26.5384615,31.3461538 C26.7307692,31.3461538 27.1153846,31.5384615 27.1153846,31.9230769 C26.9230769,32.3076923 26.7307692,32.5 26.5384615,32.5 Z" id="Shape" fill="#474F59"></path>
                    <path d="M80.9615385,32.5 L61.5384615,32.5 C61.3461538,32.5 60.9615385,32.3076923 60.9615385,31.9230769 C60.9615385,31.7307692 61.1538462,31.3461538 61.5384615,31.3461538 L80.9615385,31.3461538 C81.1538462,31.3461538 81.5384615,31.5384615 81.5384615,31.9230769 C81.3461538,32.3076923 81.1538462,32.5 80.9615385,32.5 Z" id="Shape" fill="#474F59"></path>
                    <path d="M58.6538462,32.5 L29.2307692,32.5 C29.0384615,32.5 28.6538462,32.3076923 28.6538462,31.9230769 C28.6538462,31.7307692 28.8461538,31.3461538 29.2307692,31.3461538 L58.6538462,31.3461538 C58.8461538,31.3461538 59.2307692,31.5384615 59.2307692,31.9230769 C59.0384615,32.3076923 58.8461538,32.5 58.6538462,32.5 Z" id="Shape" fill="#F37C5A"></path>
                    <path d="M35.1923077,38.6538462 L7.11538462,38.6538462 C6.92307692,38.6538462 6.53846154,38.4615385 6.53846154,38.0769231 C6.53846154,37.8846154 6.73076923,37.5 7.11538462,37.5 L35.1923077,37.5 C35.3846154,37.5 35.7692308,37.6923077 35.7692308,38.0769231 C35.7692308,38.4615385 35.3846154,38.6538462 35.1923077,38.6538462 Z" id="Shape" fill="#474F59"></path>
                    <path d="M46.3461538,38.6538462 L38.8461538,38.6538462 C38.6538462,38.6538462 38.2692308,38.4615385 38.2692308,38.0769231 C38.2692308,37.8846154 38.4615385,37.5 38.8461538,37.5 L46.3461538,37.5 C46.5384615,37.5 46.9230769,37.6923077 46.9230769,38.0769231 C46.9230769,38.4615385 46.7307692,38.6538462 46.3461538,38.6538462 Z" id="Shape" fill="#F37C5A"></path>
                    <path d="M75.7692308,38.6538462 L59.8076923,38.6538462 C59.6153846,38.6538462 59.2307692,38.4615385 59.2307692,38.0769231 C59.2307692,37.8846154 59.4230769,37.5 59.8076923,37.5 L75.7692308,37.5 C75.9615385,37.5 76.3461538,37.6923077 76.3461538,38.0769231 C76.1538462,38.4615385 75.9615385,38.6538462 75.7692308,38.6538462 Z" id="Shape" fill="#F37C5A"></path>
                    <path d="M56.7307692,38.6538462 L49.2307692,38.6538462 C49.0384615,38.6538462 48.6538462,38.4615385 48.6538462,38.0769231 C48.6538462,37.8846154 48.8461538,37.5 49.2307692,37.5 L56.7307692,37.5 C56.9230769,37.5 57.3076923,37.6923077 57.3076923,38.0769231 C57.3076923,38.4615385 57.1153846,38.6538462 56.7307692,38.6538462 Z" id="Shape" fill="#474F59"></path>
                    <path d="M45.3846154,1.53846154 L12.8846154,1.53846154 C12.6923077,1.53846154 12.3076923,1.34615385 12.3076923,0.961538462 C12.3076923,0.769230769 12.5,0.384615385 12.8846154,0.384615385 L45.1923077,0.384615385 C45.3846154,0.384615385 45.7692308,0.576923077 45.7692308,0.961538462 C45.7692308,1.34615385 45.5769231,1.53846154 45.3846154,1.53846154 Z" id="Shape" fill="#F37C5A"></path>
                    <path d="M10,45.3846154 L1.34615385,45.3846154 C1.15384615,45.3846154 0.769230769,45.1923077 0.769230769,44.8076923 C0.769230769,44.6153846 0.961538462,44.2307692 1.34615385,44.2307692 L10,44.2307692 C10.1923077,44.2307692 10.5769231,44.4230769 10.5769231,44.8076923 C10.5769231,45.1923077 10.3846154,45.3846154 10,45.3846154 Z" id="Shape" fill="#474F59"></path>
                    <path d="M32.6923077,51.5384615 L7.11538462,51.5384615 C6.92307692,51.5384615 6.53846154,51.3461538 6.53846154,50.9615385 C6.53846154,50.7692308 6.73076923,50.3846154 7.11538462,50.3846154 L32.6923077,50.3846154 C32.8846154,50.3846154 33.2692308,50.5769231 33.2692308,50.9615385 C33.2692308,51.1538462 33.0769231,51.5384615 32.6923077,51.5384615 Z" id="Shape" fill="#F37C5A"></path>
                    <path d="M68.0769231,51.5384615 L35.9615385,51.5384615 C35.7692308,51.5384615 35.3846154,51.3461538 35.3846154,50.9615385 C35.3846154,50.7692308 35.5769231,50.3846154 35.9615385,50.3846154 L68.2692308,50.3846154 C68.4615385,50.3846154 68.8461538,50.5769231 68.8461538,50.9615385 C68.6538462,51.1538462 68.4615385,51.5384615 68.0769231,51.5384615 Z" id="Shape" fill="#474F59"></path>
                    <path d="M15.7692308,57.6923077 L7.11538462,57.6923077 C6.92307692,57.6923077 6.53846154,57.5 6.53846154,57.1153846 C6.53846154,56.9230769 6.73076923,56.5384615 7.11538462,56.5384615 L15.7692308,56.5384615 C15.9615385,56.5384615 16.3461538,56.7307692 16.3461538,57.1153846 C16.3461538,57.5 15.9615385,57.6923077 15.7692308,57.6923077 Z" id="Shape" fill="#F37C5A"></path>
                    <path d="M26.5384615,57.6923077 L17.8846154,57.6923077 C17.6923077,57.6923077 17.3076923,57.5 17.3076923,57.1153846 C17.3076923,56.9230769 17.5,56.5384615 17.8846154,56.5384615 L26.5384615,56.5384615 C26.7307692,56.5384615 27.1153846,56.7307692 27.1153846,57.1153846 C26.9230769,57.5 26.7307692,57.6923077 26.5384615,57.6923077 Z" id="Shape" fill="#474F59"></path>
                    <path d="M37.1153846,57.6923077 L28.4615385,57.6923077 C28.2692308,57.6923077 27.8846154,57.5 27.8846154,57.1153846 C27.8846154,56.9230769 28.0769231,56.5384615 28.4615385,56.5384615 L37.1153846,56.5384615 C37.3076923,56.5384615 37.6923077,56.7307692 37.6923077,57.1153846 C37.6923077,57.5 37.5,57.6923077 37.1153846,57.6923077 Z" id="Shape" fill="#F37C5A"></path>
                    <path d="M47.8846154,57.6923077 L39.2307692,57.6923077 C39.0384615,57.6923077 38.6538462,57.5 38.6538462,57.1153846 C38.6538462,56.9230769 38.8461538,56.5384615 39.2307692,56.5384615 L47.8846154,56.5384615 C48.0769231,56.5384615 48.4615385,56.7307692 48.4615385,57.1153846 C48.4615385,57.5 48.2692308,57.6923077 47.8846154,57.6923077 Z" id="Shape" fill="#474F59"></path>
                    <path d="M73.8461538,57.6923077 L50,57.6923077 C49.8076923,57.6923077 49.4230769,57.5 49.4230769,57.1153846 C49.4230769,56.9230769 49.6153846,56.5384615 50,56.5384615 L73.8461538,56.5384615 C74.0384615,56.5384615 74.4230769,56.7307692 74.4230769,57.1153846 C74.2307692,57.5 74.0384615,57.6923077 73.8461538,57.6923077 Z" id="Shape" fill="#F37C5A"></path>
                    <path d="M24.4230769,63.8461538 L7.11538462,63.8461538 C6.92307692,63.8461538 6.53846154,63.6538462 6.53846154,63.2692308 C6.53846154,62.8846154 6.73076923,62.6923077 7.11538462,62.6923077 L24.4230769,62.6923077 C24.6153846,62.6923077 25,62.8846154 25,63.2692308 C25,63.6538462 24.8076923,63.8461538 24.4230769,63.8461538 Z" id="Shape" fill="#474F59"></path>
                    <path d="M43.8461538,63.8461538 L26.5384615,63.8461538 C26.3461538,63.8461538 25.9615385,63.6538462 25.9615385,63.2692308 C25.9615385,62.8846154 26.1538462,62.6923077 26.5384615,62.6923077 L43.8461538,62.6923077 C44.0384615,62.6923077 44.4230769,62.8846154 44.4230769,63.2692308 C44.4230769,63.6538462 44.2307692,63.8461538 43.8461538,63.8461538 Z" id="Shape" fill="#F37C5A"></path>
                    <path d="M63.2692308,63.8461538 L45.9615385,63.8461538 C45.7692308,63.8461538 45.3846154,63.6538462 45.3846154,63.2692308 C45.3846154,62.8846154 45.5769231,62.6923077 45.9615385,62.6923077 L63.2692308,62.6923077 C63.4615385,62.6923077 63.8461538,62.8846154 63.8461538,63.2692308 C63.8461538,63.6538462 63.4615385,63.8461538 63.2692308,63.8461538 Z" id="Shape" fill="#474F59"></path>
                    <path d="M82.6923077,63.8461538 L65.3846154,63.8461538 C65.1923077,63.8461538 64.8076923,63.6538462 64.8076923,63.2692308 C64.8076923,62.8846154 65,62.6923077 65.3846154,62.6923077 L82.6923077,62.6923077 C82.8846154,62.6923077 83.2692308,62.8846154 83.2692308,63.2692308 C83.2692308,63.6538462 82.8846154,63.8461538 82.6923077,63.8461538 Z" id="Shape" fill="#F37C5A"></path>
                    <path d="M38.8461538,70 L7.11538462,70 C6.92307692,70 6.53846154,69.8076923 6.53846154,69.4230769 C6.53846154,69.2307692 6.73076923,68.8461538 7.11538462,68.8461538 L39.0384615,68.8461538 C39.2307692,68.8461538 39.6153846,69.0384615 39.6153846,69.4230769 C39.4230769,69.8076923 39.2307692,70 38.8461538,70 Z" id="Shape" fill="#F37C5A"></path>
                    <path d="M74.0384615,70 L42.1153846,70 C41.9230769,70 41.5384615,69.8076923 41.5384615,69.4230769 C41.5384615,69.2307692 41.7307692,68.8461538 42.1153846,68.8461538 L74.0384615,68.8461538 C74.2307692,68.8461538 74.6153846,69.0384615 74.6153846,69.4230769 C74.4230769,69.8076923 74.2307692,70 74.0384615,70 Z" id="Shape" fill="#474F59"></path>
                    <path d="M26.5384615,76.3461538 L7.11538462,76.3461538 C6.92307692,76.3461538 6.53846154,76.1538462 6.53846154,75.7692308 C6.53846154,75.3846154 6.73076923,75.1923077 7.11538462,75.1923077 L26.5384615,75.1923077 C26.7307692,75.1923077 27.1153846,75.3846154 27.1153846,75.7692308 C27.1153846,76.1538462 26.7307692,76.3461538 26.5384615,76.3461538 Z" id="Shape" fill="#474F59"></path>
                    <path d="M80.9615385,76.3461538 L61.5384615,76.3461538 C61.3461538,76.3461538 60.9615385,76.1538462 60.9615385,75.7692308 C60.9615385,75.3846154 61.1538462,75.1923077 61.5384615,75.1923077 L80.9615385,75.1923077 C81.1538462,75.1923077 81.5384615,75.3846154 81.5384615,75.7692308 C81.5384615,76.1538462 81.1538462,76.3461538 80.9615385,76.3461538 Z" id="Shape" fill="#474F59"></path>
                    <path d="M58.6538462,76.3461538 L29.2307692,76.3461538 C29.0384615,76.3461538 28.6538462,76.1538462 28.6538462,75.7692308 C28.6538462,75.3846154 28.8461538,75.1923077 29.2307692,75.1923077 L58.6538462,75.1923077 C58.8461538,75.1923077 59.2307692,75.3846154 59.2307692,75.7692308 C59.2307692,76.1538462 58.8461538,76.3461538 58.6538462,76.3461538 Z" id="Shape" fill="#F37C5A"></path>
                    <path d="M35.1923077,82.5 L7.11538462,82.5 C6.92307692,82.5 6.53846154,82.3076923 6.53846154,81.9230769 C6.53846154,81.7307692 6.73076923,81.3461538 7.11538462,81.3461538 L35.1923077,81.3461538 C35.3846154,81.3461538 35.7692308,81.5384615 35.7692308,81.9230769 C35.7692308,82.3076923 35.3846154,82.5 35.1923077,82.5 Z" id="Shape" fill="#474F59"></path>
                    <path d="M46.3461538,82.5 L38.8461538,82.5 C38.6538462,82.5 38.2692308,82.3076923 38.2692308,81.9230769 C38.2692308,81.7307692 38.4615385,81.3461538 38.8461538,81.3461538 L46.3461538,81.3461538 C46.5384615,81.3461538 46.9230769,81.5384615 46.9230769,81.9230769 C46.9230769,82.3076923 46.7307692,82.5 46.3461538,82.5 Z" id="Shape" fill="#F37C5A"></path>
                    <path d="M75.7692308,82.5 L59.8076923,82.5 C59.6153846,82.5 59.2307692,82.3076923 59.2307692,81.9230769 C59.2307692,81.7307692 59.4230769,81.3461538 59.8076923,81.3461538 L75.7692308,81.3461538 C75.9615385,81.3461538 76.3461538,81.5384615 76.3461538,81.9230769 C76.1538462,82.3076923 75.9615385,82.5 75.7692308,82.5 Z" id="Shape" fill="#F37C5A"></path>
                    <path d="M56.7307692,82.5 L49.2307692,82.5 C49.0384615,82.5 48.6538462,82.3076923 48.6538462,81.9230769 C48.6538462,81.7307692 48.8461538,81.3461538 49.2307692,81.3461538 L56.7307692,81.3461538 C56.9230769,81.3461538 57.3076923,81.5384615 57.3076923,81.9230769 C57.3076923,82.3076923 57.1153846,82.5 56.7307692,82.5 Z" id="Shape" fill="#474F59"></path>
                    <path d="M45.3846154,45.3846154 L12.8846154,45.3846154 C12.6923077,45.3846154 12.3076923,45.1923077 12.3076923,44.8076923 C12.3076923,44.6153846 12.5,44.2307692 12.8846154,44.2307692 L45.1923077,44.2307692 C45.3846154,44.2307692 45.7692308,44.4230769 45.7692308,44.8076923 C45.7692308,45.1923077 45.5769231,45.3846154 45.3846154,45.3846154 Z" id="Shape" fill="#F37C5A"></path>
                    <path d="M10,89.2307692 L1.34615385,89.2307692 C1.15384615,89.2307692 0.769230769,89.0384615 0.769230769,88.6538462 C0.769230769,88.2692308 0.961538462,88.0769231 1.34615385,88.0769231 L10,88.0769231 C10.1923077,88.0769231 10.5769231,88.2692308 10.5769231,88.6538462 C10.5769231,89.0384615 10.3846154,89.2307692 10,89.2307692 Z" id="Shape" fill="#474F59"></path>
                    <path d="M32.6923077,95.1923077 L7.11538462,95.1923077 C6.92307692,95.1923077 6.53846154,95 6.53846154,94.6153846 C6.53846154,94.4230769 6.73076923,94.0384615 7.11538462,94.0384615 L32.6923077,94.0384615 C32.8846154,94.0384615 33.2692308,94.2307692 33.2692308,94.6153846 C33.2692308,95 33.0769231,95.1923077 32.6923077,95.1923077 Z" id="Shape" fill="#F37C5A"></path>
                    <path d="M68.0769231,95.1923077 L35.9615385,95.1923077 C35.7692308,95.1923077 35.3846154,95 35.3846154,94.6153846 C35.3846154,94.4230769 35.5769231,94.0384615 35.9615385,94.0384615 L68.2692308,94.0384615 C68.4615385,94.0384615 68.8461538,94.2307692 68.8461538,94.6153846 C68.6538462,95 68.4615385,95.1923077 68.0769231,95.1923077 Z" id="Shape" fill="#474F59"></path>
                    <path d="M15.7692308,101.538462 L7.11538462,101.538462 C6.92307692,101.538462 6.53846154,101.346154 6.53846154,100.961538 C6.53846154,100.576923 6.73076923,100.384615 7.11538462,100.384615 L15.7692308,100.384615 C15.9615385,100.384615 16.3461538,100.576923 16.3461538,100.961538 C16.3461538,101.346154 15.9615385,101.538462 15.7692308,101.538462 Z" id="Shape" fill="#F37C5A"></path>
                    <path d="M26.5384615,101.538462 L17.8846154,101.538462 C17.6923077,101.538462 17.3076923,101.346154 17.3076923,100.961538 C17.3076923,100.576923 17.5,100.384615 17.8846154,100.384615 L26.5384615,100.384615 C26.7307692,100.384615 27.1153846,100.576923 27.1153846,100.961538 C27.1153846,101.346154 26.7307692,101.538462 26.5384615,101.538462 Z" id="Shape" fill="#474F59"></path>
                    <path d="M37.1153846,101.538462 L28.4615385,101.538462 C28.2692308,101.538462 27.8846154,101.346154 27.8846154,100.961538 C27.8846154,100.576923 28.0769231,100.384615 28.4615385,100.384615 L37.1153846,100.384615 C37.3076923,100.384615 37.6923077,100.576923 37.6923077,100.961538 C37.6923077,101.346154 37.5,101.538462 37.1153846,101.538462 Z" id="Shape" fill="#F37C5A"></path>
                    <path d="M47.8846154,101.538462 L39.2307692,101.538462 C39.0384615,101.538462 38.6538462,101.346154 38.6538462,100.961538 C38.6538462,100.576923 38.8461538,100.384615 39.2307692,100.384615 L47.8846154,100.384615 C48.0769231,100.384615 48.4615385,100.576923 48.4615385,100.961538 C48.4615385,101.346154 48.2692308,101.538462 47.8846154,101.538462 Z" id="Shape" fill="#474F59"></path>
                    <path d="M73.8461538,101.538462 L50,101.538462 C49.8076923,101.538462 49.4230769,101.346154 49.4230769,100.961538 C49.4230769,100.576923 49.6153846,100.384615 50,100.384615 L73.8461538,100.384615 C74.0384615,100.384615 74.4230769,100.576923 74.4230769,100.961538 C74.4230769,101.346154 74.0384615,101.538462 73.8461538,101.538462 Z" id="Shape" fill="#F37C5A"></path>
                    <path d="M24.4230769,107.692308 L7.11538462,107.692308 C6.92307692,107.692308 6.53846154,107.5 6.53846154,107.115385 C6.53846154,106.923077 6.73076923,106.538462 7.11538462,106.538462 L24.4230769,106.538462 C24.6153846,106.538462 25,106.730769 25,107.115385 C25,107.5 24.8076923,107.692308 24.4230769,107.692308 Z" id="Shape" fill="#474F59"></path>
                    <path d="M43.8461538,107.692308 L26.5384615,107.692308 C26.3461538,107.692308 25.9615385,107.5 25.9615385,107.115385 C25.9615385,106.923077 26.1538462,106.538462 26.5384615,106.538462 L43.8461538,106.538462 C44.0384615,106.538462 44.4230769,106.730769 44.4230769,107.115385 C44.4230769,107.5 44.2307692,107.692308 43.8461538,107.692308 Z" id="Shape" fill="#F37C5A"></path>
                    <path d="M63.2692308,107.692308 L45.9615385,107.692308 C45.7692308,107.692308 45.3846154,107.5 45.3846154,107.115385 C45.3846154,106.923077 45.5769231,106.538462 45.9615385,106.538462 L63.2692308,106.538462 C63.4615385,106.538462 63.8461538,106.730769 63.8461538,107.115385 C63.8461538,107.5 63.4615385,107.692308 63.2692308,107.692308 Z" id="Shape" fill="#474F59"></path>
                    <path d="M82.6923077,107.692308 L65.3846154,107.692308 C65.1923077,107.692308 64.8076923,107.5 64.8076923,107.115385 C64.8076923,106.923077 65,106.538462 65.3846154,106.538462 L82.6923077,106.538462 C82.8846154,106.538462 83.2692308,106.730769 83.2692308,107.115385 C83.0769231,107.5 82.8846154,107.692308 82.6923077,107.692308 Z" id="Shape" fill="#F37C5A"></path>
                    <path d="M38.8461538,113.846154 L7.11538462,113.846154 C6.92307692,113.846154 6.53846154,113.653846 6.53846154,113.269231 C6.53846154,113.076923 6.73076923,112.692308 7.11538462,112.692308 L39.0384615,112.692308 C39.2307692,112.692308 39.6153846,112.884615 39.6153846,113.269231 C39.4230769,113.653846 39.2307692,113.846154 38.8461538,113.846154 Z" id="Shape" fill="#F37C5A"></path>
                    <path d="M74.0384615,113.846154 L42.1153846,113.846154 C41.9230769,113.846154 41.5384615,113.653846 41.5384615,113.269231 C41.5384615,113.076923 41.7307692,112.692308 42.1153846,112.692308 L74.0384615,112.692308 C74.2307692,112.692308 74.6153846,112.884615 74.6153846,113.269231 C74.4230769,113.653846 74.2307692,113.846154 74.0384615,113.846154 Z" id="Shape" fill="#474F59"></path>
                    <path d="M26.5384615,120 L7.11538462,120 C6.92307692,120 6.53846154,119.807692 6.53846154,119.423077 C6.53846154,119.038462 6.73076923,118.846154 7.11538462,118.846154 L26.5384615,118.846154 C26.7307692,118.846154 27.1153846,119.038462 27.1153846,119.423077 C27.1153846,119.807692 26.7307692,120 26.5384615,120 Z" id="Shape" fill="#474F59"></path>
                    <path d="M80.9615385,120 L61.5384615,120 C61.3461538,120 60.9615385,119.807692 60.9615385,119.423077 C60.9615385,119.038462 61.1538462,118.846154 61.5384615,118.846154 L80.9615385,118.846154 C81.1538462,118.846154 81.5384615,119.038462 81.5384615,119.423077 C81.5384615,119.807692 81.1538462,120 80.9615385,120 Z" id="Shape" fill="#474F59"></path>
                    <path d="M58.6538462,120 L29.2307692,120 C29.0384615,120 28.6538462,119.807692 28.6538462,119.423077 C28.6538462,119.038462 28.8461538,118.846154 29.2307692,118.846154 L58.6538462,118.846154 C58.8461538,118.846154 59.2307692,119.038462 59.2307692,119.423077 C59.2307692,119.807692 58.8461538,120 58.6538462,120 Z" id="Shape" fill="#F37C5A"></path>
                    <path d="M35.1923077,126.346154 L7.11538462,126.346154 C6.92307692,126.346154 6.53846154,126.153846 6.53846154,125.769231 C6.53846154,125.576923 6.73076923,125.192308 7.11538462,125.192308 L35.1923077,125.192308 C35.3846154,125.192308 35.7692308,125.384615 35.7692308,125.769231 C35.7692308,126.153846 35.3846154,126.346154 35.1923077,126.346154 Z" id="Shape" fill="#474F59"></path>
                    <path d="M46.3461538,126.346154 L38.8461538,126.346154 C38.6538462,126.346154 38.2692308,126.153846 38.2692308,125.769231 C38.2692308,125.576923 38.4615385,125.192308 38.8461538,125.192308 L46.3461538,125.192308 C46.5384615,125.192308 46.9230769,125.384615 46.9230769,125.769231 C46.9230769,126.153846 46.7307692,126.346154 46.3461538,126.346154 Z" id="Shape" fill="#F37C5A"></path>
                    <path d="M75.7692308,126.346154 L59.8076923,126.346154 C59.6153846,126.346154 59.2307692,126.153846 59.2307692,125.769231 C59.2307692,125.576923 59.4230769,125.192308 59.8076923,125.192308 L75.7692308,125.192308 C75.9615385,125.192308 76.3461538,125.384615 76.3461538,125.769231 C76.1538462,126.153846 75.9615385,126.346154 75.7692308,126.346154 Z" id="Shape" fill="#F37C5A"></path>
                    <path d="M56.7307692,126.346154 L49.2307692,126.346154 C49.0384615,126.346154 48.6538462,126.153846 48.6538462,125.769231 C48.6538462,125.576923 48.8461538,125.192308 49.2307692,125.192308 L56.7307692,125.192308 C56.9230769,125.192308 57.3076923,125.384615 57.3076923,125.769231 C57.3076923,126.153846 57.1153846,126.346154 56.7307692,126.346154 Z" id="Shape" fill="#474F59"></path>
                    <path d="M45.3846154,89.2307692 L12.8846154,89.2307692 C12.6923077,89.2307692 12.3076923,89.0384615 12.3076923,88.6538462 C12.3076923,88.2692308 12.5,88.0769231 12.8846154,88.0769231 L45.1923077,88.0769231 C45.3846154,88.0769231 45.7692308,88.2692308 45.7692308,88.6538462 C45.7692308,89.0384615 45.5769231,89.2307692 45.3846154,89.2307692 Z" id="Shape" fill="#F37C5A"></path>
                </g>
                <g id="Group" transform="translate(167.307692, 21.153846)">
                    <path d="M36.7307692,134.230769 C34.0384615,132.307692 32.3076923,129.423077 32.3076923,126.153846 L32.3076923,44.6153846 C32.3076923,41.3461538 34.0384615,38.4615385 36.7307692,36.5384615 C42.6923077,32.5 46.5384615,25.5769231 46.5384615,17.8846154 C46.5384615,11.5384615 43.8461538,5.76923077 39.6153846,1.53846154 L39.6153846,17.6923077 L23.8461538,26.9230769 L8.07692308,17.6923077 L8.07692308,1.53846154 C3.84615385,5.57692308 1.15384615,11.3461538 1.15384615,17.8846154 C1.15384615,25.5769231 5,32.5 10.9615385,36.5384615 C13.6538462,38.4615385 15.3846154,41.3461538 15.3846154,44.6153846 L15.3846154,126.153846 C15.3846154,129.423077 13.6538462,132.307692 10.9615385,134.230769 C5,138.269231 1.15384615,145.192308 1.15384615,152.884615 C1.15384615,159.230769 3.84615385,165 8.07692308,169.230769 L8.07692308,153.076923 L23.8461538,143.846154 L39.6153846,153.076923 L39.6153846,169.230769 C43.8461538,165.192308 46.5384615,159.423077 46.5384615,152.884615 C46.3461538,145.192308 42.5,138.269231 36.7307692,134.230769 Z" id="Shape" fill="#DB674C"></path>
                    <path d="M23.6538462,72.1153846 C20.9615385,72.1153846 18.8461538,74.2307692 18.8461538,76.9230769 L18.8461538,93.8461538 C18.8461538,96.5384615 20.9615385,98.6538462 23.6538462,98.6538462 C26.3461538,98.6538462 28.4615385,96.5384615 28.4615385,93.8461538 L28.4615385,76.9230769 C28.6538462,74.2307692 26.3461538,72.1153846 23.6538462,72.1153846 Z" id="Shape" fill="#F37C5A"></path>
                </g>
                <path d="M174.038462,74.8076923 L174.038462,71.3461538 L170.576923,71.3461538 L170.576923,72.5 L132.884615,72.5 L132.884615,71.3461538 L129.423077,71.3461538 L129.423077,74.8076923 L130.769231,74.8076923 L130.769231,112.5 L129.615385,112.5 L129.615385,115.961538 L133.076923,115.961538 L133.076923,114.807692 L170.769231,114.807692 L170.769231,115.961538 L174.230769,115.961538 L174.230769,112.5 L173.076923,112.5 L173.076923,74.8076923 L174.038462,74.8076923 Z M171.538462,72.3076923 L173.076923,72.3076923 L173.076923,73.8461538 L172.884615,73.8461538 L171.923077,73.8461538 L171.730769,73.8461538 L171.730769,73.6538462 L171.730769,72.6923077 L171.730769,72.3076923 L171.538462,72.3076923 Z M130.576923,73.8461538 L130.576923,72.3076923 L132.115385,72.3076923 L132.115385,72.5 L132.115385,73.4615385 L132.115385,73.6538462 L131.923077,73.6538462 L130.769231,73.6538462 L130.576923,73.6538462 L130.576923,73.8461538 Z M131.923077,114.807692 L130.384615,114.807692 L130.384615,113.461538 L130.769231,113.461538 L131.730769,113.461538 L131.923077,113.461538 L131.923077,113.653846 L131.923077,114.615385 L131.923077,114.807692 Z M173.076923,113.461538 L173.076923,115 L171.538462,115 L171.538462,114.807692 L171.538462,113.846154 L171.538462,113.461538 L171.730769,113.461538 L172.692308,113.461538 L173.076923,113.461538 Z M171.923077,112.5 L170.769231,112.5 L170.769231,113.653846 L132.884615,113.653846 L132.884615,112.5 L131.730769,112.5 L131.730769,74.8076923 L132.884615,74.8076923 L132.884615,73.6538462 L170.576923,73.6538462 L170.576923,74.8076923 L171.730769,74.8076923 L171.730769,112.5 L171.923077,112.5 Z" id="Shape" fill="#F6BB53"></path>
                <polygon id="Shape" fill="#F3F3F3" points="135.961538 77.8846154 135.961538 109.423077 167.5 109.423077"></polygon>
            </g>
        </g>
    </g>
</svg>