<?xml version="1.0" encoding="UTF-8"?>
<svg width="249px" height="234px" viewBox="0 0 249 234" version="1.1" xmlns="http://www.w3.org/2000/svg" xmlns:xlink="http://www.w3.org/1999/xlink">
    <!-- Generator: sketchtool 49.1 (51147) - http://www.bohemiancoding.com/sketch -->
    <title>B1959DCC-D711-4F50-8AD2-7A68CC1AADDB</title>
    <desc>Created with sketchtool.</desc>
    <defs></defs>
    <g id="all-pages" stroke="none" stroke-width="1" fill="none" fill-rule="evenodd">
        <g id="error-40" transform="translate(-831.000000, -329.000000)" fill-rule="nonzero">
            <g id="if_219_2661028" transform="translate(830.000000, 329.000000)">
                <g id="XMLID_199_" transform="translate(13.793103, 12.068966)" fill="#7DCEDC">
                    <circle id="Oval" cx="111.551724" cy="111.206897" r="110.344828"></circle>
                </g>
                <path d="M114.310345,54.6551724 L114.310345,43.1034483 L104.310345,41.7241379 C104.137931,40.6896552 103.793103,39.8275862 103.62069,38.7931034 L111.724138,32.5862069 L106.034483,22.5862069 L96.5517241,26.3793103 C95.862069,25.6896552 95.1724138,25 94.4827586,24.3103448 L98.2758621,14.8275862 L88.2758621,9.13793103 L81.8965517,17.2413793 C81.0344828,16.8965517 80,16.7241379 78.9655172,16.5517241 L77.5862069,6.37931034 L66.0344828,6.37931034 L64.6551724,16.3793103 C63.6206897,16.5517241 62.7586207,16.8965517 61.7241379,17.0689655 L55.5172414,8.96551724 L45.5172414,14.6551724 L49.3103448,24.137931 C48.6206897,24.8275862 47.9310345,25.5172414 47.2413793,26.2068966 L37.9310345,22.5862069 L32.2413793,32.5862069 L40.3448276,38.7931034 C40,39.6551724 39.8275862,40.6896552 39.6551724,41.7241379 L29.3103448,43.1034483 L29.3103448,54.6551724 L39.3103448,56.0344828 C39.4827586,57.0689655 39.8275862,57.9310345 40,58.9655172 L31.8965517,65.1724138 L37.5862069,75.1724138 L47.0689655,71.3793103 C47.7586207,72.0689655 48.4482759,72.7586207 49.137931,73.4482759 L45.6896552,82.7586207 L55.6896552,88.4482759 L61.8965517,80.3448276 C62.7586207,80.6896552 63.7931034,80.862069 64.8275862,81.0344828 L66.2068966,91.0344828 L77.5862069,91.0344828 L78.9655172,81.0344828 C80,80.862069 80.862069,80.5172414 81.8965517,80.3448276 L88.1034483,88.4482759 L98.1034483,82.7586207 L94.3103448,73.2758621 C95,72.5862069 95.6896552,71.8965517 96.3793103,71.2068966 L105.862069,75 L111.551724,65 L103.448276,58.7931034 C103.793103,57.9310345 103.965517,56.8965517 104.137931,55.862069 L114.310345,54.6551724 Z M71.8965517,69.3103448 C60.6896552,69.3103448 51.5517241,60.1724138 51.5517241,48.9655172 C51.5517241,37.7586207 60.6896552,28.6206897 71.8965517,28.6206897 C83.1034483,28.6206897 92.2413793,37.7586207 92.2413793,48.9655172 C92.2413793,60.1724138 83.1034483,69.3103448 71.8965517,69.3103448 Z" id="Shape" fill="#F37C5A"></path>
                <path d="M147.586207,19.3103448 L147.586207,14.6551724 L143.62069,14.137931 C143.62069,13.7931034 143.448276,13.4482759 143.275862,12.9310345 L146.551724,10.5172414 L144.310345,6.55172414 L140.517241,8.10344828 C140.172414,7.75862069 140,7.5862069 139.655172,7.24137931 L141.206897,3.44827586 L137.241379,1.20689655 L134.827586,4.48275862 C134.482759,4.31034483 134.137931,4.31034483 133.62069,4.13793103 L132.931034,0 L128.275862,0 L127.758621,3.96551724 C127.413793,3.96551724 126.896552,4.13793103 126.551724,4.31034483 L124.137931,1.03448276 L120,3.44827586 L121.551724,7.24137931 C121.206897,7.5862069 121.034483,7.75862069 120.689655,8.10344828 L116.896552,6.55172414 L114.655172,10.3448276 L117.931034,12.7586207 C117.758621,13.1034483 117.758621,13.4482759 117.586207,13.9655172 L113.62069,14.4827586 L113.62069,19.137931 L117.586207,19.6551724 C117.586207,20 117.758621,20.3448276 117.931034,20.862069 L114.655172,23.2758621 L116.896552,27.2413793 L120.689655,25.862069 C121.034483,26.2068966 121.206897,26.3793103 121.551724,26.7241379 L120,30.5172414 L124.137931,32.7586207 L126.551724,29.4827586 C126.896552,29.6551724 127.241379,29.6551724 127.758621,29.8275862 L128.275862,33.7931034 L132.931034,33.7931034 L133.448276,29.8275862 C133.793103,29.8275862 134.310345,29.6551724 134.655172,29.4827586 L137.068966,32.7586207 L141.034483,30.5172414 L139.482759,26.7241379 C139.827586,26.3793103 140,26.2068966 140.344828,25.862069 L144.137931,27.4137931 L146.37931,23.4482759 L143.103448,21.0344828 C143.275862,20.6896552 143.275862,20.3448276 143.448276,19.8275862 L147.586207,19.3103448 Z M130.517241,25.1724138 C126.034483,25.1724138 122.413793,21.5517241 122.413793,17.0689655 C122.413793,12.5862069 126.034483,8.96551724 130.517241,8.96551724 C135,8.96551724 138.62069,12.5862069 138.62069,17.0689655 C138.793103,21.3793103 135,25.1724138 130.517241,25.1724138 Z" id="Shape" fill="#474F59"></path>
                <g id="Group" transform="translate(0.000000, 51.724138)">
                    <path d="M29.8275862,35 L29.8275862,155.344828 C29.8275862,157.241379 31.3793103,158.793103 33.2758621,158.793103 L217.586207,158.793103 C219.482759,158.793103 221.034483,157.241379 221.034483,155.344828 L221.034483,35 C221.034483,33.1034483 219.482759,31.5517241 217.586207,31.5517241 L33.2758621,31.5517241 C31.3793103,31.5517241 29.8275862,33.1034483 29.8275862,35 Z" id="Shape" fill="#25313B"></path>
                    <path d="M31.2068966,155.344828 L31.2068966,35 C31.2068966,33.7931034 32.0689655,32.9310345 33.2758621,32.9310345 L217.586207,32.9310345 C218.793103,32.9310345 219.655172,33.7931034 219.655172,35 L219.655172,155.344828 C219.655172,156.551724 218.793103,157.413793 217.586207,157.413793 L33.2758621,157.413793 C32.0689655,157.413793 31.2068966,156.551724 31.2068966,155.344828 Z" id="Shape" fill="#474F59"></path>
                    <rect id="Rectangle-path" fill="#FFFFFF" x="39.4827586" y="41.2068966" width="171.724138" height="107.931034"></rect>
                    <path d="M1.55172414,157.586207 L1.55172414,161.724138 C1.55172414,162.241379 1.89655172,162.586207 2.4137931,162.586207 L248.448276,162.586207 C248.965517,162.586207 249.310345,162.241379 249.310345,161.724138 L249.310345,157.586207 L1.55172414,157.586207 Z" id="Shape" fill="#F3F3F3"></path>
                    <path d="M2.4137931,162.586207 L3.96551724,163.793103 C6.89655172,166.034483 10.5172414,167.413793 14.137931,167.413793 L236.896552,167.413793 C240.517241,167.413793 244.137931,166.206897 247.068966,163.793103 L248.62069,162.586207 L2.4137931,162.586207 Z" id="Shape" fill="#DAD9D8"></path>
                    <path d="M109.310345,157.586207 L109.310345,158.275862 C109.310345,159.310345 110.172414,160 111.034483,160 L139.827586,160 C140.862069,160 141.551724,159.137931 141.551724,158.275862 L141.551724,157.586207 L109.310345,157.586207 Z" id="Shape" fill="#DAD9D8"></path>
                    <rect id="Rectangle-path" fill="#DAD9D8" x="226.206897" y="159.655172" width="6.89655172" height="1.37931034"></rect>
                    <rect id="Rectangle-path" fill="#FDDA7F" x="63.6206897" y="0.517241379" width="123.793103" height="3.96551724"></rect>
                    <rect id="Rectangle-path" fill="#DAD9D8" x="63.6206897" y="4.48275862" width="123.793103" height="5.17241379"></rect>
                    <polygon id="Shape" fill="#DAD9D8" points="187.241379 149.137931 63.6206897 149.137931 55 41.2068966 195.862069 41.2068966"></polygon>
                    <rect id="Rectangle-path" fill="#FDDA7F" x="63.6206897" y="9.48275862" width="123.793103" height="139.482759"></rect>
                    <rect id="Rectangle-path" fill="#F3F3F3" x="63.6206897" y="9.48275862" width="123.793103" height="26.7241379"></rect>
                    <path d="M177.586207,5.17241379 L73.2758621,5.17241379 C72.7586207,5.17241379 72.4137931,5.51724138 72.4137931,6.03448276 L72.4137931,8.10344828 C72.4137931,8.62068966 72.7586207,8.96551724 73.2758621,8.96551724 L177.586207,8.96551724 C178.103448,8.96551724 178.448276,8.62068966 178.448276,8.10344828 L178.448276,6.03448276 C178.275862,5.51724138 177.931034,5.17241379 177.586207,5.17241379 Z" id="Shape" fill="#FFFFFF"></path>
                    <polygon id="Shape" fill="#FFFFFF" points="79.3103448 0.517241379 66.2068966 0.517241379 64.3103448 4.48275862 81.2068966 4.48275862"></polygon>
                    <polygon id="Shape" fill="#F3F3F3" points="94.4827586 0.517241379 81.2068966 0.517241379 79.4827586 4.48275862 96.3793103 4.48275862"></polygon>
                    <polygon id="Shape" fill="#FFFFFF" points="109.655172 0.517241379 96.3793103 0.517241379 94.4827586 4.48275862 111.37931 4.48275862"></polygon>
                    <polygon id="Shape" fill="#F3F3F3" points="124.655172 0.517241379 111.551724 0.517241379 109.655172 4.48275862 126.551724 4.48275862"></polygon>
                    <polygon id="Shape" fill="#FFFFFF" points="139.827586 0.517241379 126.724138 0.517241379 124.827586 4.48275862 141.724138 4.48275862"></polygon>
                    <polygon id="Shape" fill="#F3F3F3" points="155 0.517241379 141.724138 0.517241379 140 4.48275862 156.896552 4.48275862"></polygon>
                    <polygon id="Shape" fill="#FFFFFF" points="170.172414 0.517241379 156.896552 0.517241379 155 4.48275862 171.896552 4.48275862"></polygon>
                    <polygon id="Shape" fill="#F3F3F3" points="185.172414 0.517241379 172.068966 0.517241379 170.172414 4.48275862 187.068966 4.48275862"></polygon>
                    <rect id="Rectangle-path" fill="#FFFFFF" x="69.4827586" y="17.0689655" width="102.758621" height="7.5862069"></rect>
                    <rect id="Rectangle-path" fill="#DAD9D8" x="172.068966" y="17.0689655" width="9.31034483" height="7.5862069"></rect>
                    <path d="M177.241379,19.4827586 C176.724138,18.9655172 175.689655,18.9655172 175.172414,19.4827586 C174.655172,20 174.655172,21.0344828 175.172414,21.5517241 C175.689655,22.0689655 176.551724,22.0689655 177.068966,21.7241379 L178.448276,23.1034483 L178.793103,22.7586207 L177.413793,21.3793103 C177.758621,20.6896552 177.758621,20 177.241379,19.4827586 Z M176.896552,21.2068966 C176.551724,21.5517241 175.862069,21.5517241 175.344828,21.2068966 C174.827586,20.862069 175,20.1724138 175.344828,19.6551724 C175.689655,19.137931 176.37931,19.3103448 176.896552,19.6551724 C177.413793,20.1724138 177.413793,20.862069 176.896552,21.2068966 Z" id="Shape" fill="#FFFFFF"></path>
                    <rect id="Rectangle-path" fill="#7DCEDC" x="72.2413793" y="19.6551724" width="23.9655172" height="2.5862069"></rect>
                    <rect id="Rectangle-path" fill="#DAD9D8" x="72.2413793" y="30" width="6.20689655" height="2.5862069"></rect>
                    <rect id="Rectangle-path" fill="#F37C5A" x="72.2413793" y="45" width="80.5172414" height="2.5862069"></rect>
                    <rect id="Rectangle-path" fill="#FFFFFF" x="72.2413793" y="49.3103448" width="50.6896552" height="1.55172414"></rect>
                    <rect id="Rectangle-path" fill="#FFFFFF" x="72.2413793" y="52.5862069" width="106.034483" height="1.55172414"></rect>
                    <rect id="Rectangle-path" fill="#FFFFFF" x="72.2413793" y="55.6896552" width="53.7931034" height="1.55172414"></rect>
                    <rect id="Rectangle-path" fill="#FFFFFF" x="72.2413793" y="58.9655172" width="58.6206897" height="1.55172414"></rect>
                    <rect id="Rectangle-path" fill="#F37C5A" x="72.2413793" y="66.3793103" width="96.5517241" height="2.5862069"></rect>
                    <rect id="Rectangle-path" fill="#FFFFFF" x="72.2413793" y="70.5172414" width="66.7241379" height="1.55172414"></rect>
                    <rect id="Rectangle-path" fill="#FFFFFF" x="72.2413793" y="73.7931034" width="106.034483" height="1.55172414"></rect>
                    <rect id="Rectangle-path" fill="#FFFFFF" x="72.2413793" y="77.0689655" width="60.5172414" height="1.55172414"></rect>
                    <rect id="Rectangle-path" fill="#FFFFFF" x="72.2413793" y="80.3448276" width="87.4137931" height="1.55172414"></rect>
                    <rect id="Rectangle-path" fill="#F37C5A" x="72.2413793" y="86.8965517" width="20.1724138" height="2.5862069"></rect>
                    <rect id="Rectangle-path" fill="#FFFFFF" x="72.2413793" y="91.0344828" width="18.7931034" height="1.55172414"></rect>
                    <rect id="Rectangle-path" fill="#FFFFFF" x="72.2413793" y="94.3103448" width="106.034483" height="1.55172414"></rect>
                    <rect id="Rectangle-path" fill="#FFFFFF" x="72.2413793" y="97.5862069" width="54.6551724" height="1.55172414"></rect>
                    <rect id="Rectangle-path" fill="#F37C5A" x="72.2413793" y="105.172414" width="102.586207" height="2.5862069"></rect>
                    <rect id="Rectangle-path" fill="#FFFFFF" x="72.2413793" y="109.310345" width="60.5172414" height="1.55172414"></rect>
                    <rect id="Rectangle-path" fill="#FFFFFF" x="72.2413793" y="112.586207" width="92.7586207" height="1.55172414"></rect>
                    <rect id="Rectangle-path" fill="#FFFFFF" x="72.2413793" y="115.862069" width="61.3793103" height="1.55172414"></rect>
                    <rect id="Rectangle-path" fill="#F37C5A" x="72.2413793" y="123.448276" width="78.4482759" height="2.5862069"></rect>
                    <rect id="Rectangle-path" fill="#FFFFFF" x="72.2413793" y="127.586207" width="28.7931034" height="1.55172414"></rect>
                    <rect id="Rectangle-path" fill="#FFFFFF" x="72.2413793" y="130.862069" width="106.034483" height="1.55172414"></rect>
                    <rect id="Rectangle-path" fill="#FFFFFF" x="72.2413793" y="134.137931" width="53.4482759" height="1.55172414"></rect>
                    <rect id="Rectangle-path" fill="#DAD9D8" x="81.5517241" y="30" width="6.20689655" height="2.5862069"></rect>
                    <rect id="Rectangle-path" fill="#DAD9D8" x="90.6896552" y="30" width="6.20689655" height="2.5862069"></rect>
                    <rect id="Rectangle-path" fill="#DAD9D8" x="100" y="30" width="6.20689655" height="2.5862069"></rect>
                    <rect id="Rectangle-path" fill="#DAD9D8" x="109.310345" y="30" width="6.20689655" height="2.5862069"></rect>
                    <rect id="Rectangle-path" fill="#DAD9D8" x="118.62069" y="30" width="6.20689655" height="2.5862069"></rect>
                    <rect id="Rectangle-path" fill="#DAD9D8" x="127.758621" y="30" width="6.20689655" height="2.5862069"></rect>
                </g>
                <g id="Group" transform="translate(124.137931, 118.965517)">
                    <rect id="Rectangle-path" fill="#474F59" transform="translate(67.200293, 66.748931) rotate(-45.000000) translate(-67.200293, -66.748931) " x="61.9417228" y="59.9386515" width="10.5171405" height="13.620559"></rect>
                    <path d="M100.862069,86.5517241 L76.2068966,65.6896552 L66.2068966,75.6896552 L87.0689655,100.344828 C90.862069,104.827586 97.5862069,105 101.551724,101.034483 C105.517241,96.8965517 105.172414,90.1724138 100.862069,86.5517241 Z" id="Shape" fill="#DB674C"></path>
                    <path d="M74.6551724,64.3103448 L64.6551724,74.3103448 C63.7931034,75.1724138 63.7931034,76.5517241 64.6551724,77.4137931 C65.5172414,78.2758621 66.8965517,78.2758621 67.7586207,77.4137931 L77.7586207,67.4137931 C78.6206897,66.5517241 78.6206897,65.1724138 77.7586207,64.3103448 C76.7241379,63.4482759 75.3448276,63.4482759 74.6551724,64.3103448 Z" id="Shape" fill="#474F59"></path>
                    <path d="M11.7241379,11.3793103 C-3.44827586,26.5517241 -3.44827586,51.2068966 11.7241379,66.3793103 C26.8965517,81.5517241 51.5517241,81.5517241 66.7241379,66.3793103 C81.8965517,51.2068966 81.8965517,26.5517241 66.7241379,11.3793103 C51.5517241,-3.79310345 27.0689655,-3.79310345 11.7241379,11.3793103 Z M60.5172414,60 C48.7931034,71.7241379 29.8275862,71.7241379 18.2758621,60 C6.72413793,48.2758621 6.55172414,29.3103448 18.2758621,17.7586207 C30,6.03448276 48.9655172,6.03448276 60.6896552,17.7586207 C72.4137931,29.4827586 72.0689655,48.4482759 60.5172414,60 Z" id="Shape" fill="#25313B"></path>
                </g>
            </g>
        </g>
    </g>
</svg>