<?xml version="1.0" encoding="UTF-8"?>
<svg width="348px" height="261px" viewBox="0 0 348 261" version="1.1" xmlns="http://www.w3.org/2000/svg" xmlns:xlink="http://www.w3.org/1999/xlink">
    <!-- Generator: sketchtool 49.1 (51147) - http://www.bohemiancoding.com/sketch -->
    <title>91716D38-A838-438C-B3DD-65908E9EA752</title>
    <desc>Created with sketchtool.</desc>
    <defs></defs>
    <g id="all-pages" stroke="none" stroke-width="1" fill="none" fill-rule="evenodd">
        <g id="error-42" transform="translate(-751.000000, -285.000000)">
            <g id="Group-2" transform="translate(748.000000, 285.000000)">
                <g id="if_Browser_error_internet_online_web_1848629" transform="translate(101.000000, 0.000000)" fill-rule="nonzero">
                    <circle id="Oval" fill="#D9D9D9" cx="125" cy="125" r="125"></circle>
                    <path d="M195.582847,54.4644896 C195.062108,53.6823476 194.020632,53.1609195 192.979155,53.1609195 L56.5457185,53.1609195 C54.7231345,53.1609195 53.1609195,54.7252036 53.1609195,56.5502017 L53.1609195,192.903631 C53.1609195,193.946487 53.4212887,194.728629 54.2023962,195.250057 L54.4627653,195.510771 L107.578073,248.69643 C113.306194,249.478572 119.034316,250 125.022806,250 C194.020632,250 250,193.946487 250,124.857273 C250,118.860851 249.479262,113.125143 248.698154,107.389434 L195.582847,54.4644896 Z" id="Shape" fill="#000000" opacity="0.127040578"></path>
                    <g id="Group" transform="translate(53.160920, 53.160920)">
                        <g>
                            <path d="M140.427443,0.583692529 L3.9691092,0.583692529 C2.14619253,0.583692529 0.583692529,2.14619253 0.583692529,3.9691092 L0.583692529,24.2816092 L143.812859,24.2816092 L143.812859,3.9691092 C143.812859,2.14619253 142.250359,0.583692529 140.427443,0.583692529 Z" id="Shape" fill="#080088"></path>
                            <circle id="Oval" fill="#FCD462" cx="107.094109" cy="12.5628592" r="3.90625"></circle>
                            <circle id="Oval" fill="#44C4A1" cx="121.156609" cy="12.5628592" r="3.90625"></circle>
                            <circle id="Oval" fill="#E56353" cx="134.958693" cy="12.5628592" r="3.90625"></circle>
                            <path d="M31.3128592,24.5420259 C30.5316092,24.5420259 30.0107759,24.0211925 29.7503592,23.5003592 L27.6670259,17.5107759 C27.4066092,16.7295259 26.8857759,16.4691092 26.1045259,16.4691092 L8.39619253,16.4691092 C7.61494253,16.4691092 7.0941092,16.9899425 6.83369253,17.5107759 L5.01077586,23.2399425 C4.7503592,24.0211925 4.22952586,24.2816092 3.44827586,24.2816092 L0.844109195,24.2816092 L0.844109195,140.167026 C0.844109195,141.989943 2.4066092,143.552443 4.22952586,143.552443 L140.427443,143.552443 C142.250359,143.552443 143.812859,141.989943 143.812859,140.167026 L143.812859,24.5420259 L31.3128592,24.5420259 Z" id="Shape" fill="#FFFFFF"></path>
                            <path d="M31.8336925,21.9378592 L56.0524425,21.9378592 L54.7503592,17.5107759 C54.4899425,16.7295259 53.9691092,16.4691092 53.1878592,16.4691092 L30.0107759,16.4691092 C30.0107759,16.4691092 30.2711925,16.7295259 30.2711925,16.7295259 L31.8336925,21.9378592 Z" id="Shape" fill="#EBF0F3"></path>
                        </g>
                        <g transform="translate(37.895115, 56.573276)">
                            <path d="M67.1156609,53.3854167 L43.1573276,5.72916667 C39.5114943,-1.82291667 28.8344109,-1.5625 25.1885776,5.72916667 L1.49066092,53.3854167 C-1.89475575,60.15625 3.05316092,67.96875 10.6052443,67.96875 L58.2614943,67.96875 C65.5531609,67.96875 70.5010776,60.15625 67.1156609,53.3854167 Z" id="Shape" fill="#FCD462"></path>
                            <g transform="translate(28.645833, 17.061782)" fill="#FF3702">
                                <polygon id="Shape" points="9.04274425 27.4694684 2.27191092 27.4694684 0.188577586 0.125718391 11.1260776 0.125718391"></polygon>
                                <circle id="Oval" cx="5.65732759" cy="38.1465517" r="5.46875"></circle>
                            </g>
                        </g>
                    </g>
                </g>
                <text id="404" font-family="Roboto-Medium, Roboto" font-size="124" font-weight="400" fill="#080088">
                    <tspan x="0" y="259">404</tspan>
                </text>
            </g>
        </g>
    </g>
</svg>